<svg version="1" xmlns="http://www.w3.org/2000/svg" width="346.667" height="346.667" viewBox="0 0 260.000000 260.000000"><path d="M1 33.7c0 1 4 7.6 4.9 8.3.4.3 2.1 2.5 3.8 5 1.7 2.5 4.1 5.5 5.2 6.7 1.2 1.3 2 2.3 1.7 2.3-.2 0 1 1.5 2.7 3.3 1.8 1.9 6.6 7.2 10.9 11.8 4.2 4.6 11.9 12.8 17 18.1C63 105.4 63.9 107 62 116.4c-1.4 6.3-5.2 13-11.5 20.1-4.5 5-19.5 21.3-21.3 23.2-2 1.9-2.6 8.6-1.2 11.3.9 1.7.9 2.1 0 1.5-.9-.6-.9-.3-.1 1.2.6 1.1.8 2.3.4 2.6-.9 1-.5 8.4.6 10.6 1.6 2.9 9.1 5.1 19.1 5.5 7.9.3 11.4-1 13.8-5.3 2.9-5 5.2-6.7 13.5-10 4-1.5 8.1-3.2 9.2-3.6 1.1-.5 2.4-.7 2.9-.6.4.1 1.3-.2 2-.7.6-.5 3.4-1 6.1-1.1 13.1-.6 19.2-2.7 23.5-8.1 1.4-1.7 3.5-4.3 4.7-5.8l2.2-2.7-1.1 4.5c-.6 2.5-1.4 4.7-1.7 5-.3.3-1.2 1.7-2 3.2-3.1 6.1-17.8 20.2-30.6 29.6-4.7 3.4-12.5 8.1-12.5 7.5 0-.5-.4-.4-.8.2-.4.5-2.7 2.1-5.2 3.4-6.9 3.7-7.6 4.6-5.2 6.7 2.4 2 8.2 4.2 13.2 4.9 10.3 1.5 34.6 2.6 35.6 1.6.2-.2 3.9-.5 8.1-.6 4.3-.2 7.8-.4 7.8-.4 0-.1 2.1-.4 4.6-.6 2.5-.2 5.9-.6 7.5-.9 1.6-.3 4.7-.8 6.9-1.2 2.2-.3 4.3-.8 4.7-1.1.5-.2 1.7-.6 2.8-.9 4.4-.9 5.6-1.3 8-2.2 4.5-1.6 16-.3 16 1.9 0 .5.7.9 1.5.9s1.5.3 1.5.7c0 .7 2.8 2.6 8.7 5.9 6.8 3.8 20.8 5.7 29.3 4 5.7-1.2 10-2.7 10-3.6 0-1.2-3.9-2-4.6-.9-.3.5-1 .6-1.6.3-.6-.4-3.4-.8-6.3-.9-5-.2-13.6-2.8-16.3-5-5.2-4-9.2-9.4-9.2-12.3 0-.4 2.8 1.9 6.1 5.1 3.4 3.2 6.4 5.5 6.7 5.2.3-.3 1.3.2 2.3 1.1 2.3 2.1 20 2.6 20.6.6.3-.6-.1-1.2-.7-1.2-2.5 0-7.3-4.5-9.1-8.4-2-4.5-2.5-9.1-.9-8.1 1.5.9 9.1 1.5 11.3.9 2-.6 2.3-2.4.4-2.4-2.2 0-8.8-8.8-8.7-11.5 0-.3-.1-.8-.1-1.3-.1-.4-.2-1.2-.3-1.7-.2-1.9-4-9.5-4.7-9.5-.4 0-1-.7-1.3-1.6-.6-1.5-.4-1.5 1.1-.3 1 .7 3.3 2.9 5.1 4.9 8.9 9.6 11.7 12.1 16 14.2 4.9 2.3 14.7 3.4 15.8 1.7.3-.5 1-.7 1.5-.4.5.4.9.1.9-.5s-1.2-1.5-2.7-2.1c-4.2-1.5-9.3-5.2-9.3-6.7 0-.6-.4-1.2-.9-1.2s-1.1-.6-1.4-1.2c-.3-.7-2.1-5-4-9.5-1.9-4.4-4.1-8.8-4.8-9.8-4.1-4.8-8.3-8.3-12.3-10.4-5.3-2.6-5.7-3.2-2-2.5 3.9.7 7.6 2.8 11 6.2 3.5 3.6 9.7 7.2 12.4 7.2 1.1 0 2 .4 2 .8 0 1.1 11.9.7 13.1-.5.7-.7-.4-1.9-3.3-3.6-5-2.9-7.3-8-8.4-18.1-.9-9.6-4-15.1-11.4-20.5l-3.9-2.8 4-1.7c3.9-1.7 10.9-9.6 10.9-12.3 0-1.1-.7-1-3.8.3-5.8 2.7-16.4 5.2-20.2 4.8-1.9-.1-4.8-.3-6.5-.4-2.7-.1-2.4-.3 1.9-1.6 9.4-2.9 16.7-9.5 20.9-18.8 2.5-5.4 1-6.3-4.8-3.1-2.6 1.5-6.4 2.8-8.5 3-2.1.1-4.3.6-4.9.9-.6.4-1.1.3-1.1-.3s-.7-.8-1.5-.5c-.8.3-2 .2-2.7-.2-.7-.5-2.1-1-3.1-1.1-4.1-.7-10.3-4.8-16.3-11-3.5-3.6-6.4-7-6.4-7.5 0-.4 1.6-.1 3.6.7 2 .8 4 1.2 4.5.9.5-.3.9-.1.9.3 0 .5 2.3.8 5.1.7 5.6-.2 14.3-2.3 13.4-3.3-.7-.6-4.9-1.1-10.1-1.1-1.8-.1-6.1-1.9-10.5-4.5-9.9-5.9-20.7-11.3-24.4-12.1-4.6-1-19.5-1.2-20.1-.2-.3.5-.9.6-1.4.3-.7-.4-4.3.5-9 2.2-.8.3-2.4.8-3.5 1-1 .2-2.2.7-2.5 1.1-.5.8-3 2-4.8 2.3-.4.1-2 1-3.5 2.1-4.4 3.2-4.1 1.5.5-2.8 2.3-2.1 4.3-3.8 4.3-3.6 0 .2 1.7-.4 3.8-1.3 2.1-.9 4.2-1.3 4.7-1 .6.4 1 .2 1-.4 0-.5.9-.8 2-.6 1.1.2 2.2-.1 2.5-.6.4-.5 1-.7 1.5-.4.5.3 1.1.1 1.5-.5.7-1.1.3-1.1-6-1.4-12.1-.5-27.3 8.1-35.6 20.1l-3 4.3-5.9-4.4c-8.4-6.2-14.7-8.4-22.2-7.7-1.9.1-1.8 2.5.6 9.1.9 2.4 1.9 6.7 2.2 9.5.3 2.9 1.6 6.6 3.1 8.9 3 4.7 1.9 6-4.2 5.1-4-.6-15-6.2-17.9-9.1-.9-.8-1.6-1.3-1.6-1 0 .3-1-.3-2.2-1.3-1.3-1.1-5.7-4.6-9.8-7.9-4.1-3.4-8.8-7.3-10.5-8.7-1.6-1.4-4.9-4.3-7.3-6.3-2.4-2-7.6-6.7-11.5-10.4-4-3.7-7.8-6.8-8.4-6.8-.7 0-1.3-.6-1.3-1.3 0-.8-1.1-1.9-2.5-2.5-3-1.4-3.5-1.5-3.5-.5z"/></svg>